inDegrees=no
num_controls=7
num_derivatives=13
num_iterations=92
num_multipliers=7
num_parameters=0
num_slacks=7
num_states=26
objective=4.637036
objective_accelerations=0.640335
objective_balance=0.030493
objective_effort=0.483868
objective_height=3.398459
objective_ligament=0.083881
solver_duration=998.940303
status=Solve_Succeeded
success=true
DataType=double
version=3
OpenSimVersion=4.4-2022-07-23-0e9fedc
endheader
time	/jointset/ground_pelvis/pelvis_tilt/value	/jointset/ground_pelvis/pelvis_tx/value	/jointset/ground_pelvis/pelvis_ty/value	/jointset/hip_l/hip_flexion_l/value	/jointset/hip_l/hip_adduction_l/value	/jointset/hip_l/hip_rotation_l/value	/jointset/back/lumbar_extension/value	/jointset/patellofemoral_l/patellar_flexion_l/value	/jointset/knee_l/knee_flexion_l/value	/jointset/knee_l/knee_adduction_l/value	/jointset/knee_l/knee_rotation_l/value	/jointset/ankle_l/ankle_angle_l/value	/jointset/subtalar_l/subtalar_angle_l/value	/jointset/ground_pelvis/pelvis_tilt/speed	/jointset/ground_pelvis/pelvis_tx/speed	/jointset/ground_pelvis/pelvis_ty/speed	/jointset/hip_l/hip_flexion_l/speed	/jointset/hip_l/hip_adduction_l/speed	/jointset/hip_l/hip_rotation_l/speed	/jointset/back/lumbar_extension/speed	/jointset/patellofemoral_l/patellar_flexion_l/speed	/jointset/knee_l/knee_flexion_l/speed	/jointset/knee_l/knee_adduction_l/speed	/jointset/knee_l/knee_rotation_l/speed	/jointset/ankle_l/ankle_angle_l/speed	/jointset/subtalar_l/subtalar_angle_l/speed	/forceset/tau_hip_flexion_l	/forceset/tau_hip_adduction_l	/forceset/tau_hip_rotation_l	/forceset/tau_knee_flexion_l	/forceset/tau_ankle_angle_l	/forceset/tau_subtalar_angle_l	/forceset/tau_lumbar_extension	lambda_cid13_p0	lambda_cid13_p1	lambda_cid13_p2	lambda_cid13_p3	lambda_cid13_p4	lambda_cid13_p5	lambda_cid14_p0	/jointset/ground_pelvis/pelvis_tilt/accel	/jointset/ground_pelvis/pelvis_tx/accel	/jointset/ground_pelvis/pelvis_ty/accel	/jointset/hip_l/hip_flexion_l/accel	/jointset/hip_l/hip_adduction_l/accel	/jointset/hip_l/hip_rotation_l/accel	/jointset/back/lumbar_extension/accel	/jointset/patellofemoral_l/patellar_flexion_l/accel	/jointset/knee_l/knee_flexion_l/accel	/jointset/knee_l/knee_adduction_l/accel	/jointset/knee_l/knee_rotation_l/accel	/jointset/ankle_l/ankle_angle_l/accel	/jointset/subtalar_l/subtalar_angle_l/accel	gamma_cid13_p0	gamma_cid13_p1	gamma_cid13_p2	gamma_cid13_p3	gamma_cid13_p4	gamma_cid13_p5	gamma_cid14_p0
1	-0.2931352225943254	-0.02056150191259512	0.4261659445309278	2.094394707008838	-0.2400875932500205	0.07100578589299475	-0.4363323129985824	1.985321602702269	1.985321602701424	0.1731033450122686	0.1741766028653964	0.4363311316734714	0.1403329414049005	-0.01017219446439285	0.001156261405494651	-0.003984374501798311	0.01868807389780193	0.0009625940639113377	0.006596145830651274	-0.0001882179818879421	0.008269633308533194	0.008269633308530247	-0.003229755974906942	-0.000159994618527569	0.0002154684092140768	0.001518835445364276	-0.2246147366807922	-0.002125869764382427	-0.06666855816204779	-0.5232805919207529	0.07144950375121289	0.02056101000707317	0.230697766176002	-25.45118995716117	5.208335976986695	-12.29155873947839	27.2964728939625	-745.4440617723392	-58.10384777328508	-0.0289147331943815	-1.632313659941943	-0.8211534576081596	2.158618399720932	-4.510697809656476	0.07039086090427635	-0.6916477094994194	0.0698460643782926	-6.987944152436051	-6.987944152435986	-1.262692028915223	-0.004584093910922918	-1.156506456592637	-0.3609087444062664	-3.955255354868206e-09	9.531028591119575e-09	1.358442350508686e-08	1.352115336238317e-08	3.513644478238161e-09	4.243517631012245e-08	-1.089620077389043e-09
1.01	-0.2933166034542326	-0.02059079737553737	0.4262348420711812	2.094351625607631	-0.240074161845326	0.0710421145627308	-0.4363315474027206	1.985053679753155	1.98505367975287	0.1730031296075205	0.1741753983084354	0.4362768486712575	0.140331074486569	-0.02598348712104305	-0.006999992644424973	0.01783478969152956	-0.02762805278676366	0.001705010278220245	0.000643359045447506	0.0003374471363401523	-0.06197785074272516	-0.06197785074274335	-0.01683264452024286	-7.034380232507427e-05	-0.01099446594119724	-0.001886661394090041	-0.2268835860951277	-0.002079542340688985	-0.0665890760715432	-0.5237457394964777	0.07046891254364535	0.0205730777500172	0.2326388380281277	-25.90562458070555	5.285819309104436	-12.3075165998613	27.48774330643982	-747.6674942882471	-58.16108160689551	-0.02887679404306276	-1.537456734429612	-0.8105426691118689	2.204201137477276	-4.740618868219877	0.07338141938569313	-0.5510203817960561	0.04329855085574001	-7.061700710801557	-7.06170071080366	-1.411966030245778	0.01736121995720738	-1.091600252514236	-0.3295113083833855	-3.835077270574201e-09	-7.812768724053625e-08	-1.034314147544628e-07	7.192138359105878e-08	-1.754293653526716e-09	-3.848672696677682e-07	2.990406016138555e-08
1.02	-0.2936524811737912	-0.02070119163706007	0.4265240583950237	2.093835673183165	-0.2400538633949598	0.07101813012079827	-0.4363256493040287	1.984079571927663	1.984079571927946	0.1727663095647196	0.1741754145696409	0.4361127936574595	0.1402953243689092	-0.04107156641421917	-0.01506349831059416	0.04007938221632654	-0.07588613028598916	0.002336003200224367	-0.005466476490352027	0.0008379848665211038	-0.132967341967197	-0.1329673419672302	-0.0305506835817092	8.416903670799595e-05	-0.02173893342150825	-0.005257804420237315	-0.2291524355099658	-0.002033214917161367	-0.06650959398098479	-0.5242108870722662	0.06948832133611911	0.02058514549270187	0.2345799098798103	-26.36192199957036	5.358589248109925	-12.31696698508778	27.76884404754399	-749.8659090605196	-58.2397485414613	-0.0289019079447538	-1.487670987251076	-0.8026037808563257	2.243704066014363	-4.899087972586362	0.04810620244269986	-0.7230574596183238	0.06482058676634013	-7.136345587076683	-7.136345587076569	-1.28572213214124	0.008388310655589065	-1.063413082568333	-0.3540379817439669	2.868277513999723e-08	-1.74559127024423e-07	-2.238739039968451e-07	2.784899079423021e-08	-3.628120901530509e-08	-8.305610364753247e-07	5.824865893434716e-08
1.03	-0.294135433282102	-0.02089176021389406	0.4270374650040627	2.092828739906668	-0.2400276988353581	0.07093237395628577	-0.436315207192237	1.982392753544859	1.982392753545023	0.1723919607078026	0.1741771359367643	0.435843016126285	0.1402259578848813	-0.05537056731281272	-0.02303432749797827	0.0626356650391079	-0.125703185232109	0.002887207672757872	-0.01169870169981114	0.001203491812652676	-0.2044302703691566	-0.2044302703691332	-0.04431879319990387	0.0002592578402490736	-0.03219800051654705	-0.008620944316560981	-0.2310296517786816	-0.001853894730411487	-0.06623437820250155	-0.523700223951737	0.06837858328813223	0.02060950127860316	0.236025423086262	-26.7761082241267	5.399878408946038	-12.29995746528025	28.03895140547336	-750.7845630074289	-58.21329962072037	-0.02896465514418254	-1.378756115787285	-0.7919427791497899	2.266634774775483	-5.053399132388133	0.05721991657897468	-0.5753693630155869	0.01537388280192684	-7.156374315440868	-7.156374315432221	-1.422247464862278	0.02206105092980799	-1.034367545657144	-0.3281860656574955	6.153121606410228e-08	-2.710800843996592e-07	-3.443513590655828e-07	-1.72690410130633e-08	-7.110668536922665e-08	-1.276442469821959e-06	8.656622626378004e-08
1.04	-0.29475692369424	-0.02116156114089219	0.4277774433181916	2.091317559105291	-0.2399963037616551	0.07078388267734836	-0.4363025183843803	1.979990284308298	1.979990284308339	0.1718799523367837	0.1741806065689855	0.4354692051194166	0.1401228131874744	-0.06877922719670031	-0.03090996834342069	0.08539372323459785	-0.1767356352488859	0.00338210602212535	-0.01801349936548384	0.00128732412894018	-0.2760975127185186	-0.276097512718439	-0.05808258634624727	0.0004340220728215266	-0.04254562851897782	-0.01201344709608686	-0.2329068680477574	-0.001674574543754195	-0.06595916242441274	-0.5231895608312513	0.0672688452401809	0.0206338570643734	0.2374709362924135	-27.19204153015762	5.436457835324399	-12.27646834126116	28.39444150182793	-751.6798696679176	-58.20714822343441	-0.02908932744536298	-1.309602784311351	-0.7835661124672541	2.284059140555918	-5.142166986716982	0.03684497780924885	-0.7395719508607655	0.008485660791300259	-7.177208376556258	-7.177208376556228	-1.284858837771092	0.00832339646202622	-1.041125264044925	-0.3599105583839882	8.387448646094629e-08	-3.633307774521755e-07	-4.630524504061319e-07	-3.183284048736786e-08	-9.720216770485815e-08	-1.698217707396476e-06	1.145368007461046e-07
1.05	-0.2955081725487811	-0.02150950350138351	0.4287460497304384	2.089290041534167	-0.2399602687646523	0.07057180592566689	-0.4362899508288886	1.976870046196158	1.976870046196198	0.1712303278920825	0.1741857911325655	0.4349924462926938	0.1399855517749997	-0.08132702019404069	-0.03864820652527458	0.1083661324047082	-0.2289733560712029	0.003811201185038247	-0.02441496544884886	0.001215946223514776	-0.3479921891374757	-0.3479921891373998	-0.0718461176826149	0.0006035879136327487	-0.05278897925948495	-0.01545021504023111	-0.2349674522965346	-0.001590568049598081	-0.06551856347110702	-0.5229019181953019	0.06675650430454391	0.02068665391508601	0.2391433831408343	-27.41679374324039	5.418143180201636	-12.23386981154283	28.35924527977082	-752.8700389535035	-58.34490390796746	-0.02922358424084081	-1.205814185712928	-0.7644173109892534	2.309592917510872	-5.295373245430294	0.04396787538549249	-0.592355622567095	-0.01648564828927636	-7.201937968397409	-7.20193796839757	-1.422567668600376	0.02157713840388181	-1.013365934052314	-0.337125928813345	1.058894702788135e-07	-4.55448024744607e-07	-5.816980303801751e-07	-4.544182020126669e-08	-1.230248377274181e-07	-2.119239626353114e-06	1.424965317019571e-07
